<svg xmlns="http://www.w3.org/2000/svg" width="1200" height="800" viewBox="-444 -134.00725 3848 804.0435"><path d="M134.016 0C59.406 0 0 70.997 0 268.023 0 437.495 33.326 536.02 134.016 536.02c110.116 0 123.148-108.653 123.148-198.454l-79.683-3.641c-1.474 74.618-8.695 122.394-39.851 122.394-28.972 0-39.097-18.814-39.097-188.285 0-175.305 19.517-188.359 39.097-188.359 23.172 0 34.03 31.88 34.03 117.374l84.024-2.906C255.684 99.982 242.649 0 134.016 0zM401.81.01c-83.272 0-137.612 64.476-137.612 268.023 0 203.519 54.34 267.996 137.612 267.996 83.286 0 137.62-64.482 137.62-267.996 0-28.158-1.077-53.562-3.089-76.594 32.42 108.166 163.753 134.28 163.753 214.923 0 21.006-10.86 49.956-42.02 49.956-40.568 0-40.57-50.675-40.57-79.656v-.01h-84.022c0 71.013 20.305 159.367 120.987 159.367 55.347 0 93.687-26.903 113.63-67.564v57.431h69.551V147.781h1.435l63.022 378.105h52.144l63.758-378.105h1.453v378.105h84.014V277.917c1.761 195.65 55.634 258.112 137.547 258.112 75.04 0 126.557-52.395 136.03-211.595v201.452h94.157V319.451h37.68c68.888 0 106.078-37.858 119.13-98.478a978.533 978.533 0 00-1.112 47.06c0 203.518 54.33 267.996 137.602 267.996 83.324 0 137.648-64.482 137.648-267.996 0-203.547-54.324-268.024-137.648-268.024-66.404 0-114.37 41.092-131.092 160.92-1.178-108.895-56.846-150.76-162.208-150.76h-94.157v201.453C1367.58 52.398 1316.063.009 1241.023.009c-81.913 0-135.786 62.463-137.547 258.14V10.168H981.055l-44.182 264.364h-1.434L893.409 10.17h-125.31v114.146C759.343 49.594 725.157.009 650.856.009c-78.834 0-120.781 61.695-121.668 138.044C509.752 35.795 463.82.009 401.81.009zm1502.362 10.16v515.717h214.426v-79.684h-120.251V10.17zm229.506 0v515.717h94.156V10.17zm109.99 0v79.674h81.136v436.043h94.165V89.844h80.07l-61.23 436.043h78.949l13.02-114.45h76.106l13.72 114.45h165.103V213.682h1.452l100.694 312.205H2960V10.17h-75.316v272.327h-1.443L2797.047 10.17h-92.004v474.294L2646.397 10.17H2510.23l-10.151 72.29V10.17zM401.81 79.674c21.745 0 34.766 22.46 34.766 134.007v108.666c0 111.542-13.02 133.97-34.766 133.97-21.745 0-34.775-22.428-34.775-133.97V213.681c0-111.547 13.03-134.007 34.775-134.007zm246.838 0c37.672 0 37.672 48.541 37.672 77.523h81.78v163.596C725.625 230.86 613.174 197.87 613.174 126.771c0-28.252 13.041-47.097 35.474-47.097zm592.375 0c21.713 0 34.757 22.46 34.757 134.007v108.666c0 111.542-13.044 133.97-34.757 133.97-21.73 0-34.775-22.428-34.775-133.97V213.681c0-111.547 13.044-134.007 34.775-134.007zm523.496 0c21.764 0 34.775 22.46 34.775 134.007v108.666c0 111.542-13.01 133.97-34.775 133.97-21.717 0-34.757-22.428-34.757-133.97V213.681c0-111.547 13.04-134.007 34.757-134.007zm-292.546 10.17h7.2c31.151 0 60.134 2.163 60.134 76.778 0 62.284-21.011 77.513-59.399 77.513h-7.935zm1096.91 0h1.463l27.511 246.277h-58.618z" fill="#fff"/></svg>