<?xml version="1.0" encoding="utf-8"?>
<!-- Generator: Adobe Illustrator 19.2.1, SVG Export Plug-In . SVG Version: 6.00 Build 0)  -->
<svg version="1.1" id="layer" xmlns="http://www.w3.org/2000/svg" xmlns:xlink="http://www.w3.org/1999/xlink" x="0px" y="0px"
	 viewBox="0 0 652 652" style="enable-background:new 0 0 652 652;" xml:space="preserve">
<style type="text/css">
	.st0{fill:#fff;}
	.st1{fill:#fff;}
</style>
<path class="st0" d="M56.2,320.2c6,0,9.9-2.6,9.9-6.5c0-4.5-3.4-6.9-9.4-6.9H41.4v13.5H56.2L56.2,320.2z M27,292.5h29.9
	c14,0,23,8.2,23,20.8c0,6.7-3.5,13.6-9,17.5l-0.7,0.4l11.6,29H66.4L56,334.6H41.5v25.6H27V292.5z M91.7,292.5h49.6v13.9h-35.1v10.5
	h19v14h-19v15.4h35.9v14H91.7V292.5z M190.5,331.1l-7.1-16.7l-7.1,16.7L190.5,331.1L190.5,331.1z M149,360.2l28.7-67.7h11.7
	l28.3,67.7h-15l-6.5-15.1h-25.7l-6.5,15.1H149L149,360.2z M225.6,292.5H240v53.9h35.9v13.9h-50.3V292.5z"/>
<path class="st1" d="M300.3,337.1c6.7,8,10.7,10.3,17.5,10.3c6.9,0,11.8-3.1,11.8-7.8c0-3.8-3-5.8-11.7-7.8
	c-11.8-2.7-16.7-5.3-20.1-10.6c-1.8-2.9-2.7-6.2-2.7-9.7c0-11.6,9.2-19.7,22.3-19.7c10.1,0,20.1,5,26.1,13.2l-10.2,8.7
	c-6.8-6.3-10.1-7.9-16-7.9c-5.2,0-8.4,2-8.4,5.2c0,3,2,4.5,7.9,5.8c1.5,0.4,3.5,1,6.1,1.8l8.6,2.7c7.1,2.2,12.2,9.7,12.2,17.8
	c0,12.5-10.6,21.6-25,21.6c-7.5,0-15.6-2.7-21.1-7.2c-1.8-1.5-3.9-3.7-6.8-6.7c-0.9-1-1.1-1.1-2-2.2L300.3,337.1L300.3,337.1z
	 M354,360.2h14.3v-67.7H354V360.2z M379.1,292.5h13.3l17.1,36.4l17.4-36.4h14l-0.1,67.7h-14.1v-34.3l-17.3,34.3l-16.2-34v34h-14.1
	L379.1,292.5z M481.5,320.4h1.1c5.9,0,9.4-2.6,9.4-6.9c0-4.2-3.4-6.8-9.1-6.8H466v13.7H481.5z M451.7,292.5h31.5
	c13.3,0,22.6,8.6,22.6,20.9c0,12.4-9.7,21.2-23,21.2h-16.7v25.6h-14.4V292.5z M515.8,292.5h14.4v53.9h35.9v13.9h-50.3V292.5z
	 M576.5,292.5h49.6v13.9h-35.1v10.5h19v14h-19v15.4H627v14h-50.5V292.5z"/>
</svg>
