<?xml version="1.0" encoding="utf-8"?>
<!-- Generator: Adobe Illustrator 19.0.0, SVG Export Plug-In . SVG Version: 6.00 Build 0)  -->
<svg version="1.1" id="layer" xmlns="http://www.w3.org/2000/svg" xmlns:xlink="http://www.w3.org/1999/xlink" x="0px" y="0px"
	 viewBox="-153 -46 652 652" style="enable-background:new -153 -46 652 652;" xml:space="preserve">
<style type="text/css">
	.st0{fill:#fff;}
</style>
<g>
	<path class="st0" d="M-108.4,310.1c-12.3,0-17.4-16.8-19.8-35.4h-2.9v37.4h2.5l3.6-6.3c0,0,6.2,7.1,16.2,7.1
		c13.7,0,21.5-10.6,21.5-24.6c0-30.2-35.7-40.3-35.7-64.6c0-6.7,4.3-9.9,8.6-9.9c9.6,0,14.6,13.6,17.6,27.5h2.7v-30.8h-2.3l-4.4,6.7
		c0,0-5.5-6.1-13.2-6.1c-9.9,0-16.9,9.3-16.9,20.5c0,28.3,33.5,36.2,33.5,63.7C-97.4,304.5-101.3,310.1-108.4,310.1 M-62.6,309.5
		c-4.6,0-6.6-6.3-6.6-32.7c0-25.6,1.9-32.4,6.6-32.4c4.6,0,6.1,6.8,6.1,32.4C-56.4,303.1-58.2,309.5-62.6,309.5 M-62.6,242
		c-12,0-20,12.3-20,34.4c0,23.3,7.4,35.4,20.1,35.4c12.2,0,19.3-12.1,19.3-35.2C-43.1,254.4-49.8,242-62.6,242 M-34.9,296.8
		c0,4.5,0.8,8.1,2.8,10.7c2.2,2.9,5.8,4.4,9.7,4.4c6.2,0,10.5-3.3,12.6-8.8c0.3-0.8,0.6-1.5,0.8-2.3v10H8.4v-2.7H3.2v-66h-18v2.7
		h5.2V281c0,6.8-0.3,14.1-1.5,18.3c-1.1,3.6-3.2,5.9-6.3,5.9c-2.8,0-4.6-1.7-4.6-6.3V242h-18.2v2.7h5.2
		C-34.9,244.7-34.9,296.8-34.9,296.8z M17.9,305.3c2.4,4.7,6.7,6.5,11.5,6.5c3.9,0,7-1.2,9-3.6c1.6-1.9,2.3-4.6,2.3-8.1l0-10.1h-3
		l0,10.1c0,2.3-0.3,3.9-1,5.2c-0.9,1.6-2.4,2.5-4,2.5c-1.6,0-2.7-0.7-3.3-1.9c-0.6-1.1-0.7-2.7-0.7-4.7v-56.9h13.2v-3.1H28.6v-23.6
		h-2.9c0,0-1.7,12-8,18.5c-4.8,5.1-9.2,5.6-9.2,5.6v2.7h7.5v49.3C15.9,298.6,16.5,302.5,17.9,305.3"/>
	<path class="st0" d="M70,311.8h17.3v-2.7h-5.2v-52.9c0-8-3.4-14.3-11.2-14.3c-6,0-11.6,4.1-14.1,9.7v-40h-18v2.7H44v97.5h18v-2.7
		h-5.2v-46.9c0-3.2,0.5-5.7,1.6-7.9c1.6-3.2,4.2-5.3,6.3-5.3c2.8,0,4.4,1.9,4.4,6.7v56.1H70z M110.8,244.9c4.2,0,5.8,7.6,6,23.4
		c0,1.2,0,4.9,0,6.2h-12.5c0-1,0-5.6,0.1-6.5C104.8,251.3,106.8,244.9,110.8,244.9 M112.3,311.8c7.4,0,12.7-2.7,15.3-9.2
		c1.7-4.2,1.6-8.6,1.7-13.9h-3.1c0,0.4,0,1.9,0,2.3c0,5.1-0.6,8.9-1.9,11.7c-1.6,3.3-4.8,5.2-8.7,5.2c-5,0-7.9-2.9-9.5-7.9
		c-1.5-4.6-1.8-10.9-1.8-19l0-3.4h25.3c0,0,0.3-2.9,0.3-8.4c0-17.5-6.3-27.1-18.8-27.1c-5.9,0-10.6,2.9-14.2,7.8
		c-4,5.7-6.4,15.3-6.4,26.7v0.9c0,10.1,1.2,18.8,4.7,25C98.9,309.2,105.4,311.8,112.3,311.8 M135.6,311.8h17.1v-2.7h-5.2V262
		c0-5.7,0.8-8.4,2.5-11.4c0.7-1.3,1.6-2.4,2.7-3.3c-0.3,0.9-0.5,1.8-0.5,2.8c0,4.4,2.8,7.2,6.9,7.2c4,0,7-3.3,7-7.5
		c0-4.8-3.2-7.8-7.9-7.8c-4.8,0-9.1,3.3-11.4,8.8V243h-17.1v2.7h5.2v63.5h-5.2v2.7H135.6z M175.2,311.8h17.3v-2.7h-5.2v-46.8
		c0-3.2,0.5-5.7,1.6-7.9c1.6-3.2,4.2-5.3,6.3-5.3c2.8,0,4.4,1.9,4.4,6.7v56h18.2v-2.7h-5.2v-52.8c0-8-3.4-14.3-11.2-14.3
		c-6.7,0-12.7,4.9-14.8,11.5v-10.4h-17.3v2.7h5.2v63.4h-5.2v2.7H175.2z M250.6,311.8h27.9V278h-2.9c-1.6,14.3-6,30.9-21.2,30.9h-2.9
		v-94.5h5.3v-2.7H233v2.7h5.3v94.8H233v2.7H250.6L250.6,311.8z M284.6,311.8h18.1v-2.7h-5.5V242h-18.8v2.7h5.5v64.4h-5.5v2.7h5.5
		H284.6z M289.2,220.8c-4.1,0-7.6,3.1-7.6,7.6c0,4.8,3.6,7.5,7.6,7.5c4.2,0,7.5-2.9,7.5-7.5C296.7,223.9,293.4,220.8,289.2,220.8
		 M335.1,242h-6.9v2.7h6.3l-9.2,41.5l-8.2-41.5h4.1V242h-21.6v2.7h4.6l15.7,67.1h2.8l14.8-67.1h4.6V242h-4H335.1z M351.4,311.8h18.1
		v-2.7H364V242h-18.8v2.7h5.5v64.4h-5.5v2.7h5.5H351.4z M355.9,220.8c-4.1,0-7.6,3.1-7.6,7.6c0,4.8,3.6,7.5,7.6,7.5
		c4.2,0,7.5-2.9,7.5-7.5C363.4,223.9,360.1,220.8,355.9,220.8 M375.4,311.8h17.3v-2.7h-5.2v-46.8c0-3.2,0.5-5.7,1.6-7.9
		c1.6-3.2,4.2-5.3,6.3-5.3c2.8,0,4.4,1.9,4.4,6.7v56H418v-2.7h-5.2v-52.8c0-8-3.4-14.3-11.2-14.3c-6.7,0-12.7,4.9-14.8,11.5v-10.4
		h-17.3v2.7h5.2v63.4h-5.2v2.7H375.4z"/>
	<path class="st0" d="M440.8,293.1c-3.8,0-6.9-5-6.9-24.1c0-18.8,3.7-23.2,7.1-23.2c3.5,0,6.5,4.2,6.5,23.1
		C447.5,287.7,444.8,293.1,440.8,293.1 M462.8,247.2c3.4,0,6.1-2.7,6.1-6.2c0-3.9-2.6-6.6-6.4-6.6c-5.3,0-10,5.4-11.8,11.1
		c-2.8-1.8-6.1-2.8-9.5-2.8c-11.8,0-21.4,11.2-21.4,26c0,12.3,4,21.5,11.7,25.4c-6,1.4-10.7,5.3-10.7,10.9c0,6.9,6,10.1,13.9,10.1
		c4.6,0,11.5,0,12.6,0c4.8,0,7.4,0.6,9.6,2.5c1.7,1.5,2.5,3.9,2.5,6.8c0,7-6.4,11.3-15.4,11.3c-8.8,0-13.9-3.3-13.9-9.6
		c0-5.9,4.3-7.6,4.3-7.6v-0.9c0,0-5.3-0.7-9.6,0.4c-4.3,1.1-7.4,3.9-7.4,8.6c0,7.4,8.5,12.5,23.5,12.5c16.5,0,25.3-8.7,25.3-20
		c0-5.6-2.2-10.2-6.6-12.8c-3.5-2.1-7-2.7-11.9-2.7h-12c-4.3,0-6.7-0.9-6.7-3.5c0-2.9,4.2-3.9,8.3-3.9h3.7c13,0,20.7-11.3,20.7-27.3
		c0-8.9-3.2-16.8-8.4-21.5c0.3-1.7,0.9-3.2,1.9-4.8c0.5-0.9,1.1-1.7,1.9-2.4c-0.1,0.3-0.1,0.7-0.1,1
		C456.8,244.6,459.4,247.2,462.8,247.2"/>
	<path class="st0" d="M464.8,295.4c0.8,0.8,1.1,1.7,1.1,2.8c0,1.1-0.4,2-1.1,2.8c-0.7,0.8-1.7,1.2-2.8,1.2c-1,0-2-0.4-2.8-1.2
		c-0.7-0.7-1.2-1.7-1.1-2.8c0-1.1,0.4-2,1.1-2.8c0.7-0.8,1.7-1.2,2.8-1.2C463.1,294.2,464,294.6,464.8,295.4L464.8,295.4z
		 M465.2,295c-0.8-0.9-2-1.3-3.2-1.3c-1.3,0-2.3,0.4-3.2,1.3c-0.9,0.8-1.4,2-1.3,3.2c0,1.3,0.4,2.3,1.3,3.2c0.8,0.9,2,1.4,3.2,1.3
		c1.3,0,2.3-0.4,3.2-1.3c0.9-0.9,1.3-2,1.3-3.2C466.6,296.9,466.1,295.8,465.2,295z M462.7,298c-0.3,0.1-0.6,0.1-0.8,0.1h-0.8v-1.8
		h0.7c0.5,0,0.8,0.1,1.1,0.2c0.2,0.1,0.3,0.4,0.3,0.7C463.2,297.5,463,297.8,462.7,298z M460.2,300.6h0.9v-2h0.7
		c0.5,0,0.8,0.1,1,0.2c0.3,0.2,0.5,0.6,0.5,1.1v0.4l0,0.2c0,0,0,0,0,0.1c0,0,0,0,0,0.1h0.8l0-0.1c0-0.1,0-0.2,0-0.3
		c0-0.1,0-0.2,0-0.4v-0.4c0-0.3-0.1-0.5-0.3-0.8c-0.2-0.3-0.5-0.5-0.9-0.5c0.3,0,0.5-0.1,0.7-0.2c0.3-0.2,0.5-0.5,0.5-1
		c0-0.6-0.3-1-0.8-1.3c-0.3-0.1-0.7-0.2-1.4-0.2h-1.7L460.2,300.6L460.2,300.6z"/>
</g>
</svg>
