<svg width="1396" height="583" viewBox="0 0 1396 583" fill="none" xmlns="http://www.w3.org/2000/svg">
<g clip-path="url(#clip0_1_6)">
<path d="M0.75 88C0.75 77.1667 2.66667 66.5833 6.5 56.25C10.5 45.75 16.25 36.25 23.75 27.75C31.25 19.0833 40.4167 12.25 51.25 7.24999C62.0833 2.08332 74.4167 -0.500012 88.25 -0.500012C104.583 -0.500012 118.667 3.08333 130.5 10.25C142.5 17.4167 151.417 26.75 157.25 38.25L130.75 56.5C127.75 49.8333 123.833 44.5833 119 40.75C114.167 36.75 109 34 103.5 32.5C98 30.8333 92.5833 30 87.25 30C78.5833 30 71 31.75 64.5 35.25C58.1667 38.75 52.8333 43.3333 48.5 49C44.1667 54.6667 40.9167 61 38.75 68C36.75 75 35.75 82 35.75 89C35.75 96.8333 37 104.417 39.5 111.75C42 118.917 45.5 125.333 50 131C54.6667 136.5 60.1667 140.917 66.5 144.25C73 147.417 80.0833 149 87.75 149C93.25 149 98.8333 148.083 104.5 146.25C110.167 144.417 115.417 141.5 120.25 137.5C125.083 133.5 128.833 128.333 131.5 122L159.75 138.25C156.25 147.083 150.5 154.583 142.5 160.75C134.667 166.917 125.833 171.583 116 174.75C106.167 177.917 96.4167 179.5 86.75 179.5C74.0833 179.5 62.5 176.917 52 171.75C41.5 166.417 32.4167 159.417 24.75 150.75C17.25 141.917 11.3333 132.083 7 121.25C2.83333 110.25 0.75 99.1667 0.75 88ZM306.137 147.75V178H182.887V0.49999H303.887V30.75H217.387V73.5H292.137V101.5H217.387V147.75H306.137ZM333.033 178V0.49999H367.533V147.75H458.033V178H333.033ZM602.279 147.75V178H479.029V0.49999H600.029V30.75H513.529V73.5H588.279V101.5H513.529V147.75H602.279ZM772.176 132.25C772.176 142.25 769.592 150.667 764.426 157.5C759.259 164.167 752.259 169.25 743.426 172.75C734.759 176.25 725.259 178 714.926 178H629.176V0.49999H724.176C732.509 0.49999 739.676 2.74999 745.676 7.24999C751.842 11.5833 756.509 17.25 759.676 24.25C763.009 31.0833 764.676 38.25 764.676 45.75C764.676 54.25 762.509 62.3333 758.176 70C753.842 77.6667 747.509 83.3333 739.176 87C749.342 90 757.342 95.4167 763.176 103.25C769.176 111.083 772.176 120.75 772.176 132.25ZM737.426 125.75C737.426 121.25 736.509 117.25 734.676 113.75C732.842 110.083 730.342 107.25 727.176 105.25C724.176 103.083 720.676 102 716.676 102H663.676V148.75H714.926C719.092 148.75 722.842 147.75 726.176 145.75C729.676 143.583 732.426 140.75 734.426 137.25C736.426 133.75 737.426 129.917 737.426 125.75ZM663.676 30V74.75H709.676C713.509 74.75 717.009 73.8333 720.176 72C723.342 70.1667 725.842 67.5833 727.676 64.25C729.676 60.9167 730.676 56.9167 730.676 52.25C730.676 47.75 729.759 43.8333 727.926 40.5C726.259 37.1667 723.926 34.5833 720.926 32.75C718.092 30.9167 714.842 30 711.176 30H663.676ZM799.098 178V0.49999H877.598C885.764 0.49999 893.264 2.16666 900.098 5.49999C907.098 8.83333 913.098 13.3333 918.098 19C923.264 24.6667 927.181 31 929.848 38C932.681 45 934.098 52.1667 934.098 59.5C934.098 67 932.764 74.25 930.098 81.25C927.598 88.0833 923.931 94.0833 919.098 99.25C914.264 104.417 908.598 108.417 902.098 111.25L942.598 178H904.598L868.098 118.5H833.598V178H799.098ZM833.598 88.25H876.848C881.181 88.25 885.014 87 888.348 84.5C891.681 81.8333 894.348 78.3333 896.348 74C898.348 69.6667 899.348 64.8333 899.348 59.5C899.348 53.8333 898.181 48.9167 895.848 44.75C893.514 40.4167 890.514 37 886.848 34.5C883.348 32 879.514 30.75 875.348 30.75H833.598V88.25ZM1013.61 0.49999H1048.61L1113.86 178H1078.36L1061.86 133.75H999.857L983.607 178H948.107L1013.61 0.49999ZM1055.61 109.5L1031.11 36.25L1005.61 109.5H1055.61ZM1249.47 30.75H1192.72V178H1158.47V30.75H1101.72V0.49999H1249.47V30.75ZM1394.76 147.75V178H1271.51V0.49999H1392.51V30.75H1306.01V73.5H1380.76V101.5H1306.01V147.75H1394.76Z" fill="black" fill-opacity="0.2"/>
<path d="M0.75 282C0.75 271.167 2.66667 260.583 6.5 250.25C10.5 239.75 16.25 230.25 23.75 221.75C31.25 213.083 40.4167 206.25 51.25 201.25C62.0833 196.083 74.4167 193.5 88.25 193.5C104.583 193.5 118.667 197.083 130.5 204.25C142.5 211.417 151.417 220.75 157.25 232.25L130.75 250.5C127.75 243.833 123.833 238.583 119 234.75C114.167 230.75 109 228 103.5 226.5C98 224.833 92.5833 224 87.25 224C78.5833 224 71 225.75 64.5 229.25C58.1667 232.75 52.8333 237.333 48.5 243C44.1667 248.667 40.9167 255 38.75 262C36.75 269 35.75 276 35.75 283C35.75 290.833 37 298.417 39.5 305.75C42 312.917 45.5 319.333 50 325C54.6667 330.5 60.1667 334.917 66.5 338.25C73 341.417 80.0833 343 87.75 343C93.25 343 98.8333 342.083 104.5 340.25C110.167 338.417 115.417 335.5 120.25 331.5C125.083 327.5 128.833 322.333 131.5 316L159.75 332.25C156.25 341.083 150.5 348.583 142.5 354.75C134.667 360.917 125.833 365.583 116 368.75C106.167 371.917 96.4167 373.5 86.75 373.5C74.0833 373.5 62.5 370.917 52 365.75C41.5 360.417 32.4167 353.417 24.75 344.75C17.25 335.917 11.3333 326.083 7 315.25C2.83333 304.25 0.75 293.167 0.75 282ZM306.137 341.75V372H182.887V194.5H303.887V224.75H217.387V267.5H292.137V295.5H217.387V341.75H306.137ZM333.033 372V194.5H367.533V341.75H458.033V372H333.033ZM602.279 341.75V372H479.029V194.5H600.029V224.75H513.529V267.5H588.279V295.5H513.529V341.75H602.279ZM772.176 326.25C772.176 336.25 769.592 344.667 764.426 351.5C759.259 358.167 752.259 363.25 743.426 366.75C734.759 370.25 725.259 372 714.926 372H629.176V194.5H724.176C732.509 194.5 739.676 196.75 745.676 201.25C751.842 205.583 756.509 211.25 759.676 218.25C763.009 225.083 764.676 232.25 764.676 239.75C764.676 248.25 762.509 256.333 758.176 264C753.842 271.667 747.509 277.333 739.176 281C749.342 284 757.342 289.417 763.176 297.25C769.176 305.083 772.176 314.75 772.176 326.25ZM737.426 319.75C737.426 315.25 736.509 311.25 734.676 307.75C732.842 304.083 730.342 301.25 727.176 299.25C724.176 297.083 720.676 296 716.676 296H663.676V342.75H714.926C719.092 342.75 722.842 341.75 726.176 339.75C729.676 337.583 732.426 334.75 734.426 331.25C736.426 327.75 737.426 323.917 737.426 319.75ZM663.676 224V268.75H709.676C713.509 268.75 717.009 267.833 720.176 266C723.342 264.167 725.842 261.583 727.676 258.25C729.676 254.917 730.676 250.917 730.676 246.25C730.676 241.75 729.759 237.833 727.926 234.5C726.259 231.167 723.926 228.583 720.926 226.75C718.092 224.917 714.842 224 711.176 224H663.676ZM799.098 372V194.5H877.598C885.764 194.5 893.264 196.167 900.098 199.5C907.098 202.833 913.098 207.333 918.098 213C923.264 218.667 927.181 225 929.848 232C932.681 239 934.098 246.167 934.098 253.5C934.098 261 932.764 268.25 930.098 275.25C927.598 282.083 923.931 288.083 919.098 293.25C914.264 298.417 908.598 302.417 902.098 305.25L942.598 372H904.598L868.098 312.5H833.598V372H799.098ZM833.598 282.25H876.848C881.181 282.25 885.014 281 888.348 278.5C891.681 275.833 894.348 272.333 896.348 268C898.348 263.667 899.348 258.833 899.348 253.5C899.348 247.833 898.181 242.917 895.848 238.75C893.514 234.417 890.514 231 886.848 228.5C883.348 226 879.514 224.75 875.348 224.75H833.598V282.25ZM1013.61 194.5H1048.61L1113.86 372H1078.36L1061.86 327.75H999.857L983.607 372H948.107L1013.61 194.5ZM1055.61 303.5L1031.11 230.25L1005.61 303.5H1055.61ZM1249.47 224.75H1192.72V372H1158.47V224.75H1101.72V194.5H1249.47V224.75ZM1394.76 341.75V372H1271.51V194.5H1392.51V224.75H1306.01V267.5H1380.76V295.5H1306.01V341.75H1394.76Z" fill="black" fill-opacity="0.2"/>
<path d="M0.75 476C0.75 465.167 2.66667 454.583 6.5 444.25C10.5 433.75 16.25 424.25 23.75 415.75C31.25 407.083 40.4167 400.25 51.25 395.25C62.0833 390.083 74.4167 387.5 88.25 387.5C104.583 387.5 118.667 391.083 130.5 398.25C142.5 405.417 151.417 414.75 157.25 426.25L130.75 444.5C127.75 437.833 123.833 432.583 119 428.75C114.167 424.75 109 422 103.5 420.5C98 418.833 92.5833 418 87.25 418C78.5833 418 71 419.75 64.5 423.25C58.1667 426.75 52.8333 431.333 48.5 437C44.1667 442.667 40.9167 449 38.75 456C36.75 463 35.75 470 35.75 477C35.75 484.833 37 492.417 39.5 499.75C42 506.917 45.5 513.333 50 519C54.6667 524.5 60.1667 528.917 66.5 532.25C73 535.417 80.0833 537 87.75 537C93.25 537 98.8333 536.083 104.5 534.25C110.167 532.417 115.417 529.5 120.25 525.5C125.083 521.5 128.833 516.333 131.5 510L159.75 526.25C156.25 535.083 150.5 542.583 142.5 548.75C134.667 554.917 125.833 559.583 116 562.75C106.167 565.917 96.4167 567.5 86.75 567.5C74.0833 567.5 62.5 564.917 52 559.75C41.5 554.417 32.4167 547.417 24.75 538.75C17.25 529.917 11.3333 520.083 7 509.25C2.83333 498.25 0.75 487.167 0.75 476ZM306.137 535.75V566H182.887V388.5H303.887V418.75H217.387V461.5H292.137V489.5H217.387V535.75H306.137ZM333.033 566V388.5H367.533V535.75H458.033V566H333.033ZM602.279 535.75V566H479.029V388.5H600.029V418.75H513.529V461.5H588.279V489.5H513.529V535.75H602.279ZM772.176 520.25C772.176 530.25 769.592 538.667 764.426 545.5C759.259 552.167 752.259 557.25 743.426 560.75C734.759 564.25 725.259 566 714.926 566H629.176V388.5H724.176C732.509 388.5 739.676 390.75 745.676 395.25C751.842 399.583 756.509 405.25 759.676 412.25C763.009 419.083 764.676 426.25 764.676 433.75C764.676 442.25 762.509 450.333 758.176 458C753.842 465.667 747.509 471.333 739.176 475C749.342 478 757.342 483.417 763.176 491.25C769.176 499.083 772.176 508.75 772.176 520.25ZM737.426 513.75C737.426 509.25 736.509 505.25 734.676 501.75C732.842 498.083 730.342 495.25 727.176 493.25C724.176 491.083 720.676 490 716.676 490H663.676V536.75H714.926C719.092 536.75 722.842 535.75 726.176 533.75C729.676 531.583 732.426 528.75 734.426 525.25C736.426 521.75 737.426 517.917 737.426 513.75ZM663.676 418V462.75H709.676C713.509 462.75 717.009 461.833 720.176 460C723.342 458.167 725.842 455.583 727.676 452.25C729.676 448.917 730.676 444.917 730.676 440.25C730.676 435.75 729.759 431.833 727.926 428.5C726.259 425.167 723.926 422.583 720.926 420.75C718.092 418.917 714.842 418 711.176 418H663.676ZM799.098 566V388.5H877.598C885.764 388.5 893.264 390.167 900.098 393.5C907.098 396.833 913.098 401.333 918.098 407C923.264 412.667 927.181 419 929.848 426C932.681 433 934.098 440.167 934.098 447.5C934.098 455 932.764 462.25 930.098 469.25C927.598 476.083 923.931 482.083 919.098 487.25C914.264 492.417 908.598 496.417 902.098 499.25L942.598 566H904.598L868.098 506.5H833.598V566H799.098ZM833.598 476.25H876.848C881.181 476.25 885.014 475 888.348 472.5C891.681 469.833 894.348 466.333 896.348 462C898.348 457.667 899.348 452.833 899.348 447.5C899.348 441.833 898.181 436.917 895.848 432.75C893.514 428.417 890.514 425 886.848 422.5C883.348 420 879.514 418.75 875.348 418.75H833.598V476.25ZM1013.61 388.5H1048.61L1113.86 566H1078.36L1061.86 521.75H999.857L983.607 566H948.107L1013.61 388.5ZM1055.61 497.5L1031.11 424.25L1005.61 497.5H1055.61ZM1249.47 418.75H1192.72V566H1158.47V418.75H1101.72V388.5H1249.47V418.75ZM1394.76 535.75V566H1271.51V388.5H1392.51V418.75H1306.01V461.5H1380.76V489.5H1306.01V535.75H1394.76Z" fill="black" fill-opacity="0.2"/>
</g>
<defs>
<clipPath id="clip0_1_6">
<rect width="1396" height="583" fill="white"/>
</clipPath>
</defs>
</svg>
